<?xml version="1.0" standalone="no"?>
<!DOCTYPE svg PUBLIC "-//W3C//DTD SVG 20010904//EN"
 "http://www.w3.org/TR/2001/REC-SVG-20010904/DTD/svg10.dtd">
<svg version="1.0" xmlns="http://www.w3.org/2000/svg"
 width="989.000000pt" height="987.000000pt" viewBox="0 0 989.000000 987.000000"
 preserveAspectRatio="xMidYMid meet">

<g transform="translate(0.000000,987.000000) scale(0.100000,-0.100000)"
fill="#000000" stroke="none">
<path d="M2307 6876 c-62 -18 -107 -53 -147 -115 -80 -126 -81 -282 -1 -394
40 -55 89 -83 168 -96 204 -33 347 58 399 254 18 66 17 98 -3 167 -22 74 -76
147 -128 172 -50 25 -218 32 -288 12z"/>
<path d="M3175 6877 c-86 -26 -149 -86 -195 -189 -25 -54 -27 -184 -4 -250 18
-53 78 -119 138 -150 61 -33 220 -32 291 0 63 29 130 101 163 172 37 81 38
203 0 280 -55 116 -100 142 -248 146 -62 2 -121 -2 -145 -9z"/>
<path d="M2450 6120 c-19 -4 -66 -14 -105 -20 -147 -26 -232 -53 -370 -120
-270 -131 -473 -337 -613 -625 -55 -111 -116 -295 -131 -395 -7 -41 -17 -106
-24 -145 -7 -40 -12 -169 -12 -300 0 -219 3 -250 36 -430 23 -121 104 -275
194 -368 44 -44 155 -127 171 -127 4 0 35 -11 69 -25 170 -68 321 -89 630 -89
245 0 310 6 469 40 155 33 364 120 430 178 16 14 32 26 35 26 11 1 106 95 161
160 30 36 57 67 60 70 7 7 101 171 137 240 16 30 44 93 62 140 18 47 37 95 42
108 5 12 20 62 33 110 89 323 102 673 32 932 -77 290 -265 498 -526 583 -78
25 -91 28 -250 52 -103 16 -469 19 -530 5z m368 -322 c50 -47 63 -100 69 -273
6 -189 -8 -366 -46 -595 -6 -36 -14 -81 -17 -100 -3 -19 -9 -44 -14 -55 -5
-11 -11 -33 -14 -50 -19 -115 -109 -414 -158 -524 -71 -163 -171 -327 -229
-375 -52 -44 -106 -61 -186 -57 -27 1 -81 55 -101 101 -21 49 -41 189 -42 285
0 158 38 481 79 660 5 22 14 60 19 85 31 141 104 371 154 490 83 196 217 373
319 420 57 27 131 21 167 -12z"/>
<path d="M8616 5993 c-3 -10 -10 -40 -15 -68 -6 -27 -19 -93 -31 -145 -11 -52
-34 -160 -51 -240 -16 -80 -34 -163 -38 -185 -5 -22 -19 -87 -31 -145 -12 -58
-26 -121 -30 -140 -12 -53 -52 -242 -57 -270 -2 -14 -11 -53 -19 -88 -9 -35
-19 -87 -24 -115 -5 -29 -19 -95 -31 -147 -12 -52 -25 -113 -29 -135 -8 -44
-47 -229 -60 -285 -20 -88 -50 -243 -50 -256 0 -12 52 -14 335 -14 381 0 344
-10 364 100 7 36 21 103 31 150 11 47 44 202 74 345 30 143 84 397 120 565 36
168 74 348 85 400 11 52 34 160 51 240 55 254 90 425 90 438 0 9 -75 12 -339
12 -315 0 -340 -1 -345 -17z"/>
<path d="M4253 5213 l-202 -3 -9 -38 c-21 -85 -34 -173 -28 -188 6 -15 38 -16
329 -13 232 3 322 1 322 -7 0 -14 -139 -164 -151 -164 -5 0 -18 -10 -28 -22
-58 -70 -86 -101 -160 -178 -44 -47 -115 -122 -156 -166 -41 -44 -131 -140
-200 -213 -163 -175 -170 -182 -180 -207 -10 -26 -51 -246 -47 -251 4 -3 551
-5 1133 -4 l371 1 12 68 c6 37 13 87 14 112 l2 45 -358 3 c-201 1 -357 6 -355
11 2 7 158 185 478 545 25 28 70 78 101 111 30 33 73 80 96 105 22 25 72 80
111 123 40 43 74 90 78 105 3 15 9 45 14 67 20 89 27 134 21 143 -4 6 -179 9
-456 9 -247 0 -472 2 -500 4 -27 3 -141 4 -252 2z"/>
<path d="M5603 5194 c-6 -16 -1 -81 17 -199 5 -38 15 -104 20 -145 5 -41 14
-106 20 -145 6 -38 15 -104 20 -145 9 -71 18 -134 39 -287 6 -38 16 -108 24
-158 30 -184 49 -387 45 -470 -4 -76 -8 -89 -35 -122 -55 -69 -143 -92 -355
-93 -103 0 -108 -1 -113 -22 -2 -13 -11 -54 -20 -91 -8 -38 -15 -80 -15 -94
l0 -26 233 6 c357 9 489 43 682 177 73 51 166 151 247 266 32 46 188 310 188
319 0 2 13 26 28 52 16 26 46 80 66 118 52 95 86 155 138 250 24 44 82 148
127 230 46 83 104 186 128 229 25 44 53 94 62 110 10 17 43 78 75 134 41 73
55 107 48 114 -8 8 -63 8 -177 2 l-167 -9 -38 -70 c-21 -38 -56 -102 -79 -142
-60 -106 -63 -112 -242 -443 l-164 -305 -7 60 c-8 64 -21 195 -37 360 -6 55
-15 145 -21 200 -6 55 -15 149 -21 208 -5 60 -14 117 -19 128 -10 18 -26 19
-351 19 -299 0 -340 -2 -346 -16z"/>
<path d="M7780 5200 l-314 -5 -37 -165 c-20 -91 -46 -212 -58 -270 -12 -58
-31 -147 -41 -197 -11 -51 -29 -137 -41 -190 -11 -54 -29 -134 -39 -178 -48
-203 -90 -417 -84 -427 3 -4 155 -8 339 -8 l334 0 10 38 c10 40 25 105 100
457 102 471 124 571 131 605 5 19 13 58 19 85 5 28 19 93 30 145 12 52 21 98
21 101 0 13 -57 14 -370 9z"/>
<path d="M5980 2235 c0 -8 9 -15 20 -15 19 0 20 -7 20 -190 0 -183 -1 -190
-20 -190 -11 0 -20 -7 -20 -15 0 -12 17 -15 90 -15 70 0 90 3 90 14 0 7 -9 16
-20 19 -16 4 -20 14 -20 45 0 23 6 45 15 52 9 7 17 11 18 9 2 -2 20 -25 40
-50 41 -51 44 -59 22 -59 -8 0 -15 -7 -15 -15 0 -12 16 -15 85 -15 69 0 85 3
85 15 0 8 -6 15 -14 15 -16 0 -135 147 -136 167 0 17 75 73 98 73 11 0 22 7
26 15 4 12 -6 15 -64 15 -56 0 -70 -3 -70 -15 0 -8 7 -15 15 -15 25 0 16 -12
-43 -65 l-57 -49 -3 142 -3 142 -69 0 c-56 0 -70 -3 -70 -15z"/>
<path d="M8255 2230 c-66 -27 -95 -125 -56 -187 17 -27 33 -36 93 -53 102 -30
138 -47 139 -67 4 -62 -26 -87 -98 -81 -56 5 -89 26 -104 66 -5 12 -15 22 -24
22 -11 0 -15 -12 -15 -49 l0 -49 44 -11 c25 -6 58 -11 74 -11 34 0 55 -21 50
-47 -3 -14 -13 -18 -41 -17 -29 1 -37 -2 -37 -16 0 -35 78 -42 110 -10 24 24
24 27 6 62 -14 26 -13 26 22 33 70 13 102 52 102 126 0 72 -25 100 -110 125
-104 30 -120 36 -135 51 -8 8 -15 23 -15 34 0 80 170 79 195 -1 4 -11 15 -20
26 -20 16 0 19 7 19 44 0 43 0 44 -44 55 -52 13 -172 14 -201 1z"/>
<path d="M4700 2215 c0 -9 9 -15 25 -15 l25 0 0 -180 0 -180 -25 0 c-16 0 -25
-6 -25 -15 0 -13 23 -15 148 -15 181 1 237 16 265 70 34 67 7 130 -65 152
l-38 11 38 17 c41 18 52 35 52 76 0 77 -44 94 -245 94 -131 0 -155 -2 -155
-15z m275 -35 c8 -7 15 -28 15 -50 0 -47 -17 -62 -80 -68 l-50 -5 0 73 0 73
50 -5 c27 -3 56 -11 65 -18z m-1 -174 c27 -17 42 -70 31 -105 -9 -30 -43 -50
-98 -57 l-47 -7 0 98 0 98 45 -5 c25 -3 56 -13 69 -22z"/>
<path d="M7596 2035 c-63 -155 -83 -195 -97 -195 -11 0 -19 -7 -19 -15 0 -12
14 -15 65 -15 51 0 65 3 65 15 0 8 -9 15 -19 15 -29 0 -33 15 -14 54 l17 36
81 0 81 0 12 -33 c16 -44 15 -57 -3 -57 -8 0 -15 -7 -15 -15 0 -12 17 -15 95
-15 78 0 95 3 95 15 0 8 -7 15 -15 15 -17 0 -41 48 -125 258 l-54 132 -36 0
-36 0 -78 -195z m113 8 c16 -39 27 -74 23 -77 -9 -10 -122 -7 -122 3 0 5 11
33 23 62 13 30 27 63 31 73 9 25 10 22 45 -61z"/>
<path d="M5243 2109 c-28 -8 -33 -14 -33 -39 0 -37 15 -38 46 -5 43 46 124 21
124 -39 0 -22 -5 -24 -66 -29 -91 -7 -118 -28 -122 -94 -4 -64 17 -92 73 -99
28 -4 51 1 78 14 29 16 37 17 37 6 0 -11 17 -14 70 -14 56 0 70 3 70 15 0 8
-9 15 -19 15 -17 0 -19 9 -23 103 -2 83 -7 107 -23 129 -33 43 -130 61 -212
37z m137 -187 c0 -55 -12 -72 -52 -72 -20 0 -32 7 -39 24 -23 51 8 94 69 95
20 1 22 -4 22 -47z"/>
<path d="M5733 2099 c-28 -18 -33 -19 -33 -5 0 13 -13 16 -70 16 -56 0 -70 -3
-70 -15 0 -8 9 -15 20 -15 19 0 20 -7 20 -120 0 -113 -1 -120 -20 -120 -11 0
-20 -7 -20 -15 0 -12 17 -15 90 -15 73 0 90 3 90 15 0 8 -9 15 -20 15 -19 0
-20 7 -20 93 0 111 14 140 63 135 l32 -3 3 -112 c2 -96 0 -113 -13 -113 -8 0
-15 -7 -15 -15 0 -12 16 -15 85 -15 66 0 85 3 85 14 0 7 -9 16 -19 19 -17 4
-20 16 -23 116 -3 97 -6 113 -24 132 -32 31 -100 36 -141 8z"/>
<path d="M6475 2115 c-5 -2 -22 -6 -37 -9 -23 -5 -28 -12 -28 -36 0 -37 15
-38 46 -5 43 46 124 23 124 -36 0 -28 -2 -29 -42 -29 -101 0 -148 -33 -148
-101 0 -51 8 -67 41 -84 38 -20 67 -19 112 4 29 15 37 16 37 5 0 -11 17 -14
70 -14 53 0 70 3 70 14 0 7 -9 16 -20 19 -18 5 -20 14 -20 99 0 113 -17 151
-77 167 -36 10 -106 13 -128 6z m105 -194 c0 -56 -15 -74 -57 -69 -26 3 -28 7
-31 49 -3 39 0 47 20 57 13 6 33 11 46 11 20 1 22 -4 22 -48z"/>
<path d="M6820 2103 c-49 -26 -66 -64 -48 -111 12 -34 20 -39 88 -62 63 -21
76 -29 78 -49 7 -49 -63 -68 -112 -30 -14 11 -26 27 -26 35 0 8 -7 14 -15 14
-11 0 -15 -12 -15 -44 l0 -44 73 -7 c89 -8 148 6 176 42 49 62 13 121 -94 156
-74 23 -89 41 -60 71 32 31 125 10 125 -30 0 -8 7 -14 15 -14 18 0 22 65 5 75
-6 4 -43 9 -83 11 -57 4 -79 2 -107 -13z"/>
<path d="M7090 2096 c0 -7 9 -16 20 -19 18 -5 20 -14 20 -117 0 -103 -2 -112
-20 -117 -11 -3 -20 -12 -20 -19 0 -11 20 -14 90 -14 73 0 90 3 90 15 0 8 -9
15 -20 15 -19 0 -20 7 -20 135 l0 135 -70 0 c-53 0 -70 -3 -70 -14z"/>
<path d="M8020 1903 c-21 -8 -30 -24 -30 -55 0 -43 53 -63 84 -32 23 22 20 60
-6 78 -24 17 -25 17 -48 9z"/>
<path d="M8627 1892 c-22 -24 -21 -55 1 -75 22 -20 41 -21 65 -3 22 17 22 58
-1 79 -24 22 -45 21 -65 -1z"/>
</g>
</svg>
